# xmcd
#
# Track frame offsets: 
#        300
#        1342
#        19122
#        37558
#        43035
#        55300
#        72163
#        74493
#        89023
#        100252
#        115150
#        129797
#        131878
#        148454
#        163908
#        193779
#        196208
#
# Disc length: 2855 seconds
#
# Revision: 0
# Processed by: cddbd v1.5.2PL0 Copyright (c) Steve Scherf et al.
# Submitted via: ExactAudioCopy v1.0b1
#
DISCID=f80b2311
DTITLE=EG Kight - EG Live and Naked
DYEAR=2006
DGENRE=General Blues
TTITLE0=Goodtime Charlie Intro
TTITLE1=If You Ever Touch Me
TTITLE2=Stormy Weather
TTITLE3=EG talkin'
TTITLE4=Let The Blues Move You
TTITLE5=At Last
TTITLE6=EG talkin'
TTITLE7=I Ain't Got No Business Doin' Business Today
TTITLE8=EG talkin'
TTITLE9=Mama He Treats Your Daughter Mean
TTITLE10=Trouble With A Capital "T"
TTITLE11=EG Talkin'
TTITLE12=Son Of A Preacher Man
TTITLE13=Folsum Prison Blues
TTITLE14=I Cried Like A Baby
TTITLE15=EG talkin'
TTITLE16=What A Wonderful World
EXTD=
EXTT0=
EXTT1=
EXTT2=
EXTT3=
EXTT4=
EXTT5=
EXTT6=
EXTT7=
EXTT8=
EXTT9=
EXTT10=
EXTT11=
EXTT12=
EXTT13=
EXTT14=
EXTT15=
EXTT16=
PLAYORDER=
